<?xml version="1.0" encoding="UTF-8"?>
<svg version="1.1" xmlns="http://www.w3.org/2000/svg" width="500" height="500">
<path d="M0 0 C165 0 330 0 500 0 C500 165 500 330 500 500 C335 500 170 500 0 500 C0 335 0 170 0 0 Z " fill="#FEFEFE" transform="translate(0,0)"/>
<path d="M0 0 C-0.23074219 0.85335937 -0.46148437 1.70671875 -0.69921875 2.5859375 C-3.82883712 14.58486961 -6.12362725 26.7078926 -8.41503906 38.890625 C-13.30435531 64.87991202 -18.90403183 90.79974393 -27 116 C-27.31533691 117.01658691 -27.63067383 118.03317383 -27.95556641 119.08056641 C-28.2860498 120.0813623 -28.6165332 121.0821582 -28.95703125 122.11328125 C-29.39946167 123.48093628 -29.39946167 123.48093628 -29.85083008 124.8762207 C-31 127 -31 127 -32.98413086 127.84301758 C-39.3233275 128.33667186 -45.8437957 123.5870641 -50.92578125 120.2265625 C-54.04172114 118.38399164 -57.35497885 117.18607988 -60.73828125 115.921875 C-63 115 -63 115 -65.875 113.125 C-66.926875 112.568125 -66.926875 112.568125 -68 112 C-71.28923102 113.32137575 -74.21058354 115.34271153 -77.1875 117.25 C-78.64542969 118.18392578 -78.64542969 118.18392578 -80.1328125 119.13671875 C-82.6253708 120.75654206 -85.09799234 122.40049217 -87.5625 124.0625 C-90.73606017 126.18389416 -93.93782357 128.24684124 -97.1875 130.25 C-97.96480469 130.72953125 -98.74210937 131.2090625 -99.54296875 131.703125 C-102.28699334 133.15148138 -105.05166288 134.04815671 -108 135 C-107.59610497 124.92854255 -105.75211196 115.61378816 -103.375 105.875 C-102.86675691 103.78319874 -102.36160027 101.69089866 -101.86636353 99.59597778 C-101.42324236 97.72208361 -100.96855244 95.8509361 -100.51318359 93.97998047 C-99.75118315 90.95871117 -99.75118315 90.95871117 -101 88 C-102.47144268 86.71211757 -104.0045715 85.49429673 -105.5625 84.3125 C-110.78302653 80.14972721 -115.53675971 75.66500123 -120.25 70.9375 C-120.9107251 70.2772583 -121.5714502 69.6170166 -122.25219727 68.93676758 C-124.19029112 66.97781575 -126.10170194 64.99751395 -128 63 C-128.66193359 62.30664551 -129.32386719 61.61329102 -130.00585938 60.89892578 C-130.63814453 60.21169434 -131.27042969 59.52446289 -131.921875 58.81640625 C-132.4900293 58.2035376 -133.05818359 57.59066895 -133.64355469 56.95922852 C-135.23814389 54.65602867 -135.62552065 52.75301767 -136 50 C-129.68206144 45.7214863 -123.63017782 42.98615736 -116.2734375 40.95703125 C-109.77995194 39.05857783 -103.5769162 36.43456489 -97.33764648 33.84082031 C-88.25037633 30.06425092 -79.13250646 26.53649216 -69.828125 23.3359375 C-66.24673645 22.10091412 -62.71599043 20.75462304 -59.1875 19.375 C-42.80643204 13 -42.80643204 13 -39 13 C-39 12.34 -39 11.68 -39 11 C-36.18938194 10.03583976 -33.37670402 9.07859159 -30.5625 8.125 C-29.77939453 7.85558594 -28.99628906 7.58617187 -28.18945312 7.30859375 C-24.20796318 5.9650457 -20.28806765 4.7978351 -16.171875 3.94140625 C-12.25509106 3.12060804 -9.25517052 1.74258545 -5.82421875 -0.29296875 C-3.5190473 -1.18640779 -2.29465744 -0.79527863 0 0 Z " fill="#0B0A06" transform="translate(318,131)"/>
<path d="M0 0 C1.42832498 2.85664996 0.62890494 4.55374853 -0.0390625 7.66015625 C-0.28688477 8.83231689 -0.53470703 10.00447754 -0.79003906 11.2121582 C-1.06557617 12.482771 -1.34111328 13.75338379 -1.625 15.0625 C-2.19779847 17.74426455 -2.76667164 20.42685871 -3.3359375 23.109375 C-3.5522583 24.12346184 -3.5522583 24.12346184 -3.77294922 25.15803528 C-4.61565511 29.12358844 -5.41516797 33.09384532 -6.1640625 37.078125 C-8.65923039 50.32743265 -11.70748158 63.41390158 -14.9375 76.5 C-15.14274292 77.3424527 -15.34798584 78.1849054 -15.55944824 79.05288696 C-18.3916505 90.63769112 -21.82162705 101.82889917 -26 113 C-29.02065483 112.30517909 -31.06477696 111.44697243 -33.625 109.6875 C-36.49962246 107.83239629 -39.23071346 106.43547305 -42.4375 105.25 C-55.27311344 100.3329727 -66.96750928 93.11607578 -78 85 C-76.74134568 81.2176802 -75.67607446 79.39883752 -72.375 77.1875 C-61.83326809 69.39652796 -52.50783197 59.37777793 -44.58984375 48.96484375 C-43.13908762 47.17189453 -41.73804514 45.80140589 -39.9375 44.375 C-36.88511799 41.90711667 -34.57437515 39.27142264 -32.04296875 36.29296875 C-29.67726185 33.63776808 -27.16773077 31.17348921 -24.625 28.6875 C-20.18439543 24.31871317 -16.16539885 19.72863407 -12.28125 14.859375 C-9.71147267 11.63835273 -7.08128797 8.47276631 -4.4375 5.3125 C-3.58202331 4.28776704 -2.72655383 3.26302807 -1.87109375 2.23828125 C-1.25363281 1.49964844 -0.63617188 0.76101562 0 0 Z " fill="#FCCB1C" transform="translate(310,142)"/>
<path d="M0 0 C0.99 0.495 0.99 0.495 2 1 C-0.53901285 3.3986586 -3.08168768 5.79340128 -5.625 8.1875 C-6.33785156 8.86103516 -7.05070312 9.53457031 -7.78515625 10.22851562 C-10.92570984 13.18178849 -14.06263394 16.09951131 -17.3984375 18.83203125 C-20.05733228 20.90086618 -20.05733228 20.90086618 -22 23.5 C-23.66685824 25.5835728 -25.06722085 26.9371527 -27.125 28.5625 C-29.84214083 30.86616287 -30.56281112 31.93399705 -32 35 C-40.92821287 44.30778569 -50.56748272 53.00905195 -60.64453125 61.046875 C-63.39094179 63.32416401 -65.83251153 65.7973183 -68.30078125 68.3671875 C-70.80064829 70.76935858 -73.56843714 72.74416903 -76.3984375 74.73828125 C-78.14077857 75.9266919 -78.14077857 75.9266919 -79 78 C-88.32000187 73.80912668 -95.78803744 64.33351928 -102.9375 57.25 C-104.19929077 56.00778687 -104.19929077 56.00778687 -105.48657227 54.74047852 C-106.28377686 53.94440186 -107.08098145 53.1483252 -107.90234375 52.328125 C-108.61898193 51.6155957 -109.33562012 50.90306641 -110.07397461 50.16894531 C-112.07288883 47.91791806 -113.53601231 45.62397166 -115 43 C-106.02040101 39.31405107 -96.98921372 35.88296191 -87.82421875 32.6875 C-69.78342954 26.39658677 -51.86740634 19.76539561 -34 13 C-33.2879541 12.73171387 -32.5759082 12.46342773 -31.84228516 12.18701172 C-26.57085206 10.20065515 -21.35562117 8.19570307 -16.25 5.8125 C-12.5497846 4.11258554 -8.94930396 3.19539747 -4.9453125 2.4921875 C-2.69569906 2.0381146 -2.69569906 2.0381146 0 0 Z " fill="#FBF9EF" transform="translate(301,139)"/>
<path d="M0 0 C1.45938285 11.87689236 2.48611704 23.75599168 3.30224609 35.69458008 C3.68327472 41.17236584 4.11358149 46.5795116 5 52 C5.14695312 50.67162109 5.14695312 50.67162109 5.296875 49.31640625 C6.50102312 39.34066188 8.54448259 29.73862973 11 20 C12.65 19.67 14.3 19.34 16 19 C16 19.66 16 20.32 16 21 C17.175625 20.938125 18.35125 20.87625 19.5625 20.8125 C23.96726055 20.82809207 27.11301761 21.83225982 31 24 C35.47900707 28.83261289 36.34493964 31.95153462 36.2890625 38.38671875 C35.8388439 42.45693824 34.40512352 44.70154489 32 48 C28.34796746 50.43468836 25.24565787 50.69149944 21 50 C19.02 49.01 17.04 48.02 15 47 C14.67 58.55 14.34 70.1 14 82 C10 81 10 81 8.3125 78.875 C6.8020511 75.56639765 6.35342509 72.6049359 6 69 C5.236875 68.9175 4.47375 68.835 3.6875 68.75 C0.29761556 67.80398574 -0.2825291 67.04460751 -2 64 C-5.29431622 56.88427697 -6.0304578 49.7563376 -7 42 C-12.94 41.67 -18.88 41.34 -25 41 C-25.495 43.475 -25.495 43.475 -26 46 C-26.64446356 47.71136972 -27.33613029 49.40548223 -28.06640625 51.08203125 C-28.46923828 52.01337891 -28.87207031 52.94472656 -29.28710938 53.90429688 C-29.70798828 54.86400391 -30.12886719 55.82371094 -30.5625 56.8125 C-30.98724609 57.79154297 -31.41199219 58.77058594 -31.84960938 59.77929688 C-32.89539506 62.18812907 -33.94564784 64.59490803 -35 67 C-35.99 66.67 -36.98 66.34 -38 66 C-38.49427015 58.83308284 -37.08008177 53.15400297 -34.875 46.33203125 C-33.85181254 43.05194882 -33.85181254 43.05194882 -34.0625 39.76171875 C-33.98558144 36.36287968 -33.31261583 36.27685915 -31 34 C-29.97520175 32.04614115 -29.97520175 32.04614115 -29.16796875 29.8671875 C-28.84771729 29.06498779 -28.52746582 28.26278809 -28.19750977 27.4362793 C-27.86420654 26.59105713 -27.53090332 25.74583496 -27.1875 24.875 C-23.11278339 14.95536492 -19.56874641 7.23570679 -10.5390625 0.99609375 C-6.91596741 -0.42527432 -3.87857061 -0.15922553 0 0 Z " fill="#070707" transform="translate(325,277)"/>
<path d="M0 0 C4 6.75 4 6.75 4 9 C3.26136719 9.13535156 2.52273437 9.27070313 1.76171875 9.41015625 C-8.15148062 11.51371952 -17.11542276 15.40232294 -23 24 C-24.50323809 27.38234739 -24.50323809 27.38234739 -25.6875 31 C-26.10386719 32.19625 -26.52023438 33.3925 -26.94921875 34.625 C-29.08815721 41.4950477 -30.86292787 49.54048154 -27.98828125 56.421875 C-25.92316386 59.82032643 -24.35226514 61.76515657 -21 64 C-18.71351152 64.24107326 -18.71351152 64.24107326 -16.3125 64.125 C-15.50425781 64.10695313 -14.69601563 64.08890625 -13.86328125 64.0703125 C-13.24839844 64.04710937 -12.63351563 64.02390625 -12 64 C-9.10041993 54.73968103 -6.47019126 45.6256881 -5.0769043 36.00390625 C-4.7734375 34.09765625 -4.7734375 34.09765625 -4 31 C-0.1496895 28.43312633 1.58569763 29.16711276 6 30 C7.31001061 33.93003183 6.3267815 36.83858886 5.3828125 40.73828125 C5.20620087 41.49666794 5.02958923 42.25505463 4.84762573 43.03642273 C4.28094246 45.46361994 3.70340119 47.88807108 3.125 50.3125 C2.55585536 52.72666603 1.98898429 55.14134667 1.42379761 57.55644226 C1.07152821 59.05857007 0.71662062 60.56008243 0.3586731 62.06086731 C-0.57857524 66.02401702 -1.3822683 69.9744879 -2 74 C-2.99 74 -3.98 74 -5 74 C-5.33 73.34 -5.66 72.68 -6 72 C-6.5775 72.28875 -7.155 72.5775 -7.75 72.875 C-8.4925 73.24625 -9.235 73.6175 -10 74 C-10.5775 74.37125 -11.155 74.7425 -11.75 75.125 C-16.30192934 76.89519474 -20.07291954 76.8202909 -24.49609375 74.9375 C-31.72071688 70.89083134 -36.65832042 65.8524406 -40.9375 58.8125 C-44.59480303 45.68923618 -40.32742519 34.47585713 -34.39453125 22.85546875 C-27.38644877 10.95338094 -14.67967434 -0.85704686 0 0 Z " fill="#070707" transform="translate(120,274)"/>
<path d="M0 0 C0.99 0.495 0.99 0.495 2 1 C-0.53901285 3.3986586 -3.08168768 5.79340128 -5.625 8.1875 C-6.33785156 8.86103516 -7.05070312 9.53457031 -7.78515625 10.22851562 C-10.92570984 13.18178849 -14.06263394 16.09951131 -17.3984375 18.83203125 C-20.05733228 20.90086618 -20.05733228 20.90086618 -22 23.5 C-23.66685824 25.5835728 -25.06722085 26.9371527 -27.125 28.5625 C-29.84214083 30.86616287 -30.56281112 31.93399705 -32 35 C-40.91933367 44.298529 -50.54909894 52.990144 -60.61328125 61.0234375 C-63.96780914 63.80149169 -67.0155184 66.83217141 -70 70 C-75.4875864 67.13691144 -80.09181736 63.64549838 -84.86328125 59.70703125 C-86.88347777 57.97122999 -86.88347777 57.97122999 -89 57 C-87.78761048 53.36283144 -86.97309033 53.11954671 -83.72265625 51.28515625 C-82.82571045 50.76993408 -81.92876465 50.25471191 -81.00463867 49.72387695 C-79.54828003 48.90149536 -79.54828003 48.90149536 -78.0625 48.0625 C-70.77460728 43.86164696 -63.63771709 39.55226943 -56.6875 34.8125 C-48.99978325 29.58840131 -41.10697618 24.83940407 -33.05810547 20.19677734 C-29.03827647 17.85926824 -25.06295881 15.44719612 -21.08325195 13.04223633 C-17.08812378 10.63401922 -13.05683765 8.30197149 -9 6 C-9.99 5.34 -10.98 4.68 -12 4 C-11.38511719 3.87882813 -10.77023437 3.75765625 -10.13671875 3.6328125 C-9.32847656 3.46523437 -8.52023437 3.29765625 -7.6875 3.125 C-6.88699219 2.96257812 -6.08648437 2.80015625 -5.26171875 2.6328125 C-2.74698882 2.05521001 -2.74698882 2.05521001 0 0 Z " fill="#FCCB1E" transform="translate(301,139)"/>
<path d="M0 0 C2 2 2 2 2.01171875 4.171875 C1.90472656 5.02265625 1.79773438 5.8734375 1.6875 6.75 C1.57921875 7.63945312 1.4709375 8.52890625 1.359375 9.4453125 C0.95680543 12.30705706 0.52357773 15.1577209 0 18 C1.32 18 2.64 18 4 18 C5.125 21.75 5.125 21.75 4 24 C1.4375 24.625 1.4375 24.625 -1 25 C-3.25463216 33.90908049 -3.59721619 42.8631672 -4 52 C-6.475 52.495 -6.475 52.495 -9 53 C-13.13234674 48.05205851 -12.37112202 42.52766649 -12.25 36.4375 C-12.24484375 35.39658203 -12.2396875 34.35566406 -12.234375 33.28320312 C-12.1485394 24.94105527 -12.1485394 24.94105527 -11 21 C-20.15517723 19.67102266 -27.44736397 23.08222566 -35 28 C-38.37539496 31.43453052 -38.37539496 31.43453052 -39 36 C-36.25605797 36.46719681 -36.25605797 36.46719681 -33 36 C-30.75577312 34.1947982 -28.89339901 32.50949107 -26.9375 30.4375 C-25.01992456 28.40698158 -23.20729415 26.75573465 -21 25 C-18.12890625 25.16015625 -18.12890625 25.16015625 -16 26 C-16.38979206 32.55925943 -17.42113193 37.94526627 -20 44 C-21.32 44 -22.64 44 -24 44 C-25.75 41.5 -25.75 41.5 -27 39 C-29.85057335 40.12295314 -32.61159886 41.29447353 -35.375 42.625 C-39.33890704 44.12855095 -41.80671813 44.62122694 -46 44 C-49.83579033 41.38839807 -50.82853985 39.79135453 -51.8125 35.25 C-51.47920787 30.35245735 -48.67452686 27.45612975 -45.36328125 24.05078125 C-39.46940399 18.93625966 -33.30352022 15.84930054 -25.453125 15.90234375 C-24.60878906 15.90556641 -23.76445312 15.90878906 -22.89453125 15.91210938 C-22.02183594 15.92048828 -21.14914063 15.92886719 -20.25 15.9375 C-19.36183594 15.94201172 -18.47367188 15.94652344 -17.55859375 15.95117188 C-15.37232671 15.962926 -13.18619821 15.97935751 -11 16 C-10.90203125 15.09636719 -10.8040625 14.19273437 -10.703125 13.26171875 C-10.55359375 12.08222656 -10.4040625 10.90273438 -10.25 9.6875 C-10.11078125 8.51574219 -9.9715625 7.34398437 -9.828125 6.13671875 C-9 3 -9 3 -7.0859375 1.1015625 C-4.50814905 -0.25974151 -2.87654139 -0.37849229 0 0 Z " fill="#080808" transform="translate(182,287)"/>
<path d="M0 0 C1.0828125 0.22042969 1.0828125 0.22042969 2.1875 0.4453125 C3.95444042 0.79379242 5.72504951 1.12461788 7.5 1.4296875 C13.60620872 2.51735593 17.6620591 3.79194471 22.25 8.125 C24.64171105 12.05423959 25.32812899 15.41382504 25 20 C23.7819048 23.92648565 21.93862011 26.96428126 19.1875 30 C15.94615861 31.48175607 13.52639767 31.36479976 10 31 C6.5625 29.5 6.5625 29.5 4 28 C2.8513433 31.71167362 2.79457567 35.30336227 2.68359375 39.171875 C2.66281265 39.8542926 2.64203156 40.53671021 2.62062073 41.23980713 C2.55547948 43.40977356 2.49640596 45.57985624 2.4375 47.75 C2.39428103 49.22527221 2.35066568 50.70053287 2.30664062 52.17578125 C2.19983482 55.78373166 2.09846847 59.39181133 2 63 C0.0769043 62.61816406 0.0769043 62.61816406 -2 62 C-3.23046875 60.109375 -3.23046875 60.109375 -4.1875 57.75 C-4.51105469 56.98171875 -4.83460938 56.2134375 -5.16796875 55.421875 C-11.21812456 37.81109284 -4.62627964 17.24340592 0 0 Z " fill="#070707" transform="translate(369,296)"/>
<path d="M0 0 C2.76656664 1.38534485 5.5118536 2.80181081 8.24609375 4.25 C12.90328181 6.601147 17.21903107 8.10915994 22.265625 9.32421875 C30.25653614 11.67776999 37.92890103 15.13275891 45.62109375 18.3125 C45.10923039 23.3125968 44.38617119 27.59617112 42.55859375 32.3125 C42.01525391 33.735625 42.01525391 33.735625 41.4609375 35.1875 C41.18378906 35.88875 40.90664063 36.59 40.62109375 37.3125 C37.59110079 36.70516661 35.53382877 35.7440179 32.99609375 34 C30.12147129 32.14489629 27.39038029 30.74797305 24.18359375 29.5625 C11.34798031 24.6454727 -0.34641553 17.42857578 -11.37890625 9.3125 C-10.16362434 5.76244003 -9.11676369 3.60020531 -6.06640625 1.375 C-5.49277344 0.93285156 -4.91914063 0.49070313 -4.328125 0.03515625 C-2.37890625 -0.6875 -2.37890625 -0.6875 0 0 Z " fill="#FBF9F0" transform="translate(243.37890625,217.6875)"/>
<path d="M0 0 C2.96802368 0.32978041 4.73237779 0.80077419 7.14746094 2.59863281 C9.68830874 5.89222519 9.45827219 8.04539668 9.390625 12.171875 C9.38496521 12.8542926 9.37930542 13.53671021 9.37347412 14.23980713 C9.35115636 16.41059762 9.30097508 18.57971206 9.25 20.75 C9.22992876 22.2252365 9.21167907 23.70049899 9.1953125 25.17578125 C9.1513088 28.78439501 9.08231583 32.39203381 9 36 C9.46833252 35.57050049 9.93666504 35.14100098 10.41918945 34.69848633 C11.04011475 34.14443115 11.66104004 33.59037598 12.30078125 33.01953125 C12.91348877 32.46628174 13.52619629 31.91303223 14.1574707 31.34301758 C16 30 16 30 19.1875 29.6875 C23.14461653 31.53415438 24.52215393 34.05683798 26 38 C26.50704411 39.99311489 26.98443439 41.99392616 27.4375 44 C28.66682502 49.43634842 30.42952741 52.75403259 34 57 C32.1496801 58.8503199 29.57527918 58.29140132 27.10546875 58.42578125 C24.02042226 57.80190357 22.94935685 56.43569124 21 54 C19.6057697 50.90756477 18.48651917 47.77483565 17.34375 44.58203125 C16.27166579 41.83692409 16.27166579 41.83692409 13.84375 41.13671875 C13.2353125 41.09160156 12.626875 41.04648437 12 41 C11.84144531 41.68707031 11.68289062 42.37414062 11.51953125 43.08203125 C9.61528842 50.43598562 9.61528842 50.43598562 6.75 53.0625 C3.45417263 54.18607751 0.47961835 54.80304047 -3 55 C-5 53 -5 53 -5.01171875 50.06640625 C-4.90472656 48.91011719 -4.79773438 47.75382812 -4.6875 46.5625 C-4.58824219 45.40878906 -4.48898438 44.25507813 -4.38671875 43.06640625 C-4 40 -4 40 -3 37 C-2.62561264 34.33249006 -2.29284948 31.67658735 -2 29 C-1.91314941 28.21705566 -1.82629883 27.43411133 -1.73681641 26.62744141 C-0.80116446 17.77122369 -0.37472825 8.89486526 0 0 Z " fill="#070707" transform="translate(193,279)"/>
<path d="M0 0 C0.33 0 0.66 0 1 0 C1.28055106 6.79557008 0.79930414 13.40466291 0.0546875 20.1484375 C-0.94510013 29.67513304 -1.49792811 39.18216148 -1.8916626 48.75079346 C-2.07895807 53.28756455 -2.28514856 57.82346795 -2.4921875 62.359375 C-2.53310516 63.25971466 -2.57402283 64.16005432 -2.61618042 65.087677 C-3.20381955 77.73819768 -4.08115914 90.36963122 -5 103 C-8.73194813 104.10047789 -10.45613511 103.72686842 -14.0625 102.1875 C-14.91972656 101.83042969 -15.77695312 101.47335938 -16.66015625 101.10546875 C-19 100 -19 100 -22 98 C-21.70867187 97.00226563 -21.41734375 96.00453125 -21.1171875 94.9765625 C-15.38190281 75.02062161 -11.06013446 54.77674126 -7.19311523 34.38769531 C-5.00499844 22.87740266 -2.56780488 11.4310401 0 0 Z " fill="#FBCA1F" transform="translate(315,139)"/>
<path d="M0 0 C3.33600367 2.05838525 4.8262176 3.7393264 7 7 C6.76096792 13.45386629 4.65505747 16.51623656 0.0625 20.8125 C-2.45426079 22.26154409 -4.14175178 22.23818735 -7 22 C-6.59538208 18.66190216 -5.68326734 16.31913666 -3.9375 13.5 C-2.14353512 10.54028176 -1.57295968 8.52308266 -2 5 C-3.32 4.67 -4.64 4.34 -6 4 C-9.49822004 9.24733006 -9.9450929 17.73313397 -9 24 C-8.01 25.65 -7.02 27.3 -6 29 C-0.72 28.67 4.56 28.34 10 28 C0.86060209 37.13939791 0.86060209 37.13939791 -6.625 37.5 C-9.77811426 37.33912682 -11.04200834 36.97625616 -13.875 35.375 C-19.12397073 29.5085033 -20.38579925 23.22701914 -20.2734375 15.59765625 C-19.67386657 9.90173246 -17.20090984 5.64340073 -12.8125 2 C-8.71460075 -0.59974253 -4.71722759 -0.97353665 0 0 Z " fill="#090909" transform="translate(247,298)"/>
<path d="M0 0 C3.91621166 0.22378352 4.9384855 0.93419379 7.6875 3.875 C9.17279917 5.88216103 10.61493582 7.92240373 12 10 C13.2684375 8.7625 13.2684375 8.7625 14.5625 7.5 C17.25194744 5.24495262 18.03488604 4.99592996 21.75 4.5625 C25 5 25 5 27 7 C26.67028521 10.29714793 26.3773161 11.6226839 24 14 C21.8359375 14.1953125 21.8359375 14.1953125 19.375 14.125 C18.55773437 14.10695313 17.74046875 14.08890625 16.8984375 14.0703125 C16.27195312 14.04710937 15.64546875 14.02390625 15 14 C14.90501221 14.59014893 14.81002441 15.18029785 14.7121582 15.78833008 C14.26798746 18.46732551 13.79069399 21.13937728 13.3125 23.8125 C13.16361328 24.74126953 13.01472656 25.67003906 12.86132812 26.62695312 C11.59915545 33.48228316 11.59915545 33.48228316 8.5859375 36.0859375 C5.35254896 37.22885732 2.42531697 37.80611413 -1 38 C-3.51455453 35.48544547 -3.23756278 33.89855939 -3.265625 30.4609375 C-3 28 -3 28 -2.0234375 24.27734375 C-0.88545564 19.9144026 -0.56531254 15.67966892 -0.375 11.1875 C-0.33632813 10.43791016 -0.29765625 9.68832031 -0.2578125 8.91601562 C-0.10893902 5.94120458 0 2.97882444 0 0 Z " fill="#060606" transform="translate(262,301)"/>
<path d="M0 0 C0.99 0 1.98 0 3 0 C3.804375 0.8971875 3.804375 0.8971875 4.625 1.8125 C11.24534647 7.91018753 20.44193746 7.47537151 28.9375 7.375 C30.77598511 7.36412354 30.77598511 7.36412354 32.65161133 7.35302734 C44.1878333 7.18262525 55.47994307 5.85849596 66.90869141 4.38916016 C83.96044425 2.24254082 100.89629765 1.79801466 118.0625 1.75 C119.52692535 1.74209946 119.52692535 1.74209946 121.02093506 1.73403931 C123.83832339 1.72227079 126.65526417 1.72566798 129.47265625 1.734375 C130.73537605 1.72844582 130.73537605 1.72844582 132.02360535 1.72239685 C139.63497771 1.78142794 146.32573787 3.09311485 153 7 C153.33 7.66 153.66 8.32 154 9 C152.02 8.67 150.04 8.34 148 8 C148.33 8.66 148.66 9.32 149 10 C145.04 9.34 141.08 8.68 137 8 C137 7.01 137 6.02 137 5 C114.19921486 4.73281936 91.72948838 5.02385429 69.078125 8.0234375 C55.38409567 9.83203346 41.89470599 11.39843018 28.0625 11.5 C26.89098389 11.51820801 25.71946777 11.53641602 24.51245117 11.55517578 C16.21090266 11.49592651 8.13697746 10.28794208 1.875 4.375 C0 2 0 2 0 0 Z " fill="#FFCE24" transform="translate(95,352)"/>
<path d="M0 0 C3.80133442 1.67923025 6.97082702 4.11462834 10.25 6.625 C10.80429688 7.04523438 11.35859375 7.46546875 11.9296875 7.8984375 C13.28866663 8.92938719 14.64463835 9.96429911 16 11 C12.47373687 14.95089168 8.3415312 17.50136542 3.875 20.25 C3.14667969 20.70890625 2.41835937 21.1678125 1.66796875 21.640625 C-3.74102493 25 -3.74102493 25 -6 25 C-6 25.66 -6 26.32 -6 27 C-10.38461538 30 -10.38461538 30 -13 30 C-12.37134585 26.10198909 -11.18414145 22.87655884 -9.53125 19.296875 C-9.04269531 18.2346875 -8.55414063 17.1725 -8.05078125 16.078125 C-7.28314453 14.43070313 -7.28314453 14.43070313 -6.5 12.75 C-5.98824219 11.63625 -5.47648438 10.5225 -4.94921875 9.375 C-1.14565618 1.14565618 -1.14565618 1.14565618 0 0 Z " fill="#F6F4EC" transform="translate(230,229)"/>
<path d="M0 0 C1.4608905 -0.00749268 1.4608905 -0.00749268 2.95129395 -0.01513672 C5.77105652 -0.02700091 8.590388 -0.02390148 11.41015625 -0.015625 C12.25210037 -0.0195929 13.09404449 -0.02356079 13.96150208 -0.02764893 C21.57273928 0.03153442 28.26334463 1.34317734 34.9375 5.25 C35.4325 6.24 35.4325 6.24 35.9375 7.25 C33.9575 6.92 31.9775 6.59 29.9375 6.25 C30.4325 7.24 30.4325 7.24 30.9375 8.25 C26.9775 7.59 23.0175 6.93 18.9375 6.25 C18.9375 5.26 18.9375 4.27 18.9375 3.25 C13.8958689 3.18950415 8.85440805 3.15031072 3.8125 3.125 C2.67601517 3.1186705 2.67601517 3.1186705 1.51657104 3.11221313 C-11.00922334 3.06120468 -23.38213726 3.6218984 -35.85400391 4.80224609 C-37.61043213 4.95234131 -37.61043213 4.95234131 -39.40234375 5.10546875 C-40.93942993 5.25471802 -40.93942993 5.25471802 -42.50756836 5.40698242 C-45.0625 5.25 -45.0625 5.25 -46.91625977 3.7590332 C-47.29451904 3.26105225 -47.67277832 2.76307129 -48.0625 2.25 C-32.03368408 0.46192492 -16.1126399 0.02909732 0 0 Z " fill="#FFD339" transform="translate(213.0625,353.75)"/>
<path d="M0 0 C1.9375 1.0625 1.9375 1.0625 3 3 C3.63316583 8.90954774 3.63316583 8.90954774 1.875 11.9375 C-0.93512264 13.52990283 -2.82764724 13.45319325 -6 13 C-8.375 11.375 -8.375 11.375 -10 9 C-10.45319325 5.82764724 -10.52990283 3.93512264 -8.9375 1.125 C-5.8930714 -0.64273274 -3.4368988 -0.36823916 0 0 Z " fill="#F6F6F6" transform="translate(314,371)"/>
<path d="M0 0 C1.9375 1.125 1.9375 1.125 3 3 C3.54068562 6.63031776 3.46379841 8.32214079 1.375 11.375 C-1.67785921 13.46379841 -3.36968224 13.54068562 -7 13 C-8.875 11.9375 -8.875 11.9375 -10 10 C-10.36528977 6.5906288 -10.6140629 4.11976176 -8.9375 1.0625 C-5.88023824 -0.6140629 -3.4093712 -0.36528977 0 0 Z " fill="#F6F6F6" transform="translate(237,371)"/>
<path d="M0 0 C3.69536586 0.28425891 6.3214771 0.5476514 9.4375 2.625 C11.60852177 5.92495309 11.49248002 8.13051412 11 12 C9.875 13.9375 9.875 13.9375 8 15 C4.9375 15.375 4.9375 15.375 2 15 C-0.35119399 11.47320901 -0.21443452 9.97120515 -0.125 5.8125 C-0.10695313 4.72582031 -0.08890625 3.63914062 -0.0703125 2.51953125 C-0.04710937 1.68808594 -0.02390625 0.85664063 0 0 Z " fill="#F3F3F3" transform="translate(374,303)"/>
<path d="M0 0 C4.08449505 0.23564395 6.34214932 0.40962119 9.4375 3.1875 C11.27029145 6.48652462 11.56565153 8.28286141 11 12 C9.875 13.875 9.875 13.875 8 15 C4.9375 15.3125 4.9375 15.3125 2 15 C0 13 0 13 -0.1953125 9.9609375 C-0.17210937 8.77757812 -0.14890625 7.59421875 -0.125 6.375 C-0.10695313 5.18648438 -0.08890625 3.99796875 -0.0703125 2.7734375 C-0.04710937 1.85820312 -0.02390625 0.94296875 0 0 Z " fill="#F4F4F4" transform="translate(342,303)"/>
<path d="M0 0 C2.64 0 5.28 0 8 0 C8.34274406 1.66475686 8.67364302 3.33195323 9 5 C9.3403125 6.5778125 9.3403125 6.5778125 9.6875 8.1875 C9.790625 9.115625 9.89375 10.04375 10 11 C8 13 8 13 6.0546875 13.1953125 C4.03645833 13.13020833 2.01822917 13.06510417 0 13 C0 8.71 0 4.42 0 0 Z " fill="#262626" transform="translate(86,371)"/>
<path d="M0 0 C2.35373401 3.53060101 2.65778415 6.58595756 3.125 10.6875 C3.21136719 11.38939453 3.29773438 12.09128906 3.38671875 12.81445312 C3.59826875 14.54211145 3.800086 16.2709566 4 18 C0.04 18 -3.92 18 -8 18 C-6.65150163 13.64029169 -4.95092154 9.68658562 -2.875 5.625 C-2.33617187 4.56539063 -1.79734375 3.50578125 -1.2421875 2.4140625 C-0.83226562 1.61742187 -0.42234375 0.82078125 0 0 Z " fill="#EDEDED" transform="translate(312,293)"/>
<path d="M0 0 C3.53571429 0.53571429 3.53571429 0.53571429 5 2 C4.72449438 8.47438213 2.06546444 13.37809659 -1 19 C-0.01 19.33 0.98 19.66 2 20 C0.02 20.33 -1.96 20.66 -4 21 C-4.21013565 14.4857947 -3.92207209 8.27639588 -2 2 C-1.34 1.34 -0.68 0.68 0 0 Z " fill="#EFEFEF" transform="translate(241,301)"/>
<path d="M0 0 C6.0546875 -0.1953125 6.0546875 -0.1953125 8 0 C8.66 0.66 9.32 1.32 10 2 C9.625 4.625 9.625 4.625 9 7 C8.34 7 7.68 7 7 7 C7.99 8.98 8.98 10.96 10 13 C6.125 11.25 6.125 11.25 5 9 C4.01 8.67 3.02 8.34 2 8 C2 9.65 2 11.3 2 13 C1.34 13 0.68 13 0 13 C0 8.71 0 4.42 0 0 Z " fill="#2B2B2B" transform="translate(100,371)"/>
<path d="M0 0 C6.15234375 -0.09765625 6.15234375 -0.09765625 8 0 C9 1 9 1 9.125 3.3125 C9 6 9 6 8.4375 8.125 C7.77876382 10.20883241 7.77876382 10.20883241 9 13 C8.34 13 7.68 13 7 13 C6.34 11.35 5.68 9.7 5 8 C4.01 8 3.02 8 2 8 C2 9.65 2 11.3 2 13 C1.34 13 0.68 13 0 13 C0 8.71 0 4.42 0 0 Z " fill="#313131" transform="translate(395,371)"/>
<path d="M0 0 C6.0546875 -0.1953125 6.0546875 -0.1953125 8 0 C8.66 0.66 9.32 1.32 10 2 C9.625 4.625 9.625 4.625 9 7 C6.69 7.33 4.38 7.66 2 8 C2 9.65 2 11.3 2 13 C1.34 13 0.68 13 0 13 C0 8.71 0 4.42 0 0 Z " fill="#2E2E2E" transform="translate(200,371)"/>
<path d="M0 0 C0.99 0 1.98 0 3 0 C3.804375 0.8971875 3.804375 0.8971875 4.625 1.8125 C10.69725092 7.40536269 19.19930812 7.49598176 27.0625 7.6875 C28.02349609 7.72166016 28.98449219 7.75582031 29.97460938 7.79101562 C32.31628927 7.87256667 34.65763863 7.94200966 37 8 C37 8.33 37 8.66 37 9 C31.39 9 25.78 9 20 9 C20 9.66 20 10.32 20 11 C12.25919767 10.80289624 7.0474686 8.60792449 1.2734375 3.4609375 C0 2 0 2 0 0 Z " fill="#FFD234" transform="translate(95,352)"/>
<path d="M0 0 C6.15234375 -0.09765625 6.15234375 -0.09765625 8 0 C9 1 9 1 9.1875 3.4375 C9 6 9 6 7 8 C3.875 8.125 3.875 8.125 1 8 C1 9.65 1 11.3 1 13 C0.67 13 0.34 13 0 13 C0 8.71 0 4.42 0 0 Z " fill="#232323" transform="translate(245,371)"/>
<path d="M0 0 C0.33 0.66 0.66 1.32 1 2 C-0.11375 1.95875 -1.2275 1.9175 -2.375 1.875 C-6.04366025 1.58878141 -6.04366025 1.58878141 -8 4 C-8.16687448 6.58354218 -8.16687448 6.58354218 -8 9 C-5.69 9.66 -3.38 10.32 -1 11 C-1 10.01 -1 9.02 -1 8 C-2.32 8 -3.64 8 -5 8 C-5 7.34 -5 6.68 -5 6 C-3.02 6 -1.04 6 1 6 C1 7.98 1 9.96 1 12 C-1.84083641 13.42041821 -3.85477278 13.31452272 -7 13 C-9.4375 11.4375 -9.4375 11.4375 -11 9 C-11 5.18846501 -10.80074051 2.94902579 -8.3125 0 C-5.17312652 -1.35756691 -3.24160383 -0.93646333 0 0 Z " fill="#343434" transform="translate(187,371)"/>
<path d="M0 0 C2 1 2 1 3 3 C2.31035156 3.43570313 1.62070313 3.87140625 0.91015625 4.3203125 C-5.1128051 8.13733328 -11.0872481 12.01436724 -17 16 C-17 13 -17 13 -14.89453125 10.58203125 C-11.96165947 7.9657988 -8.98315712 5.82424473 -5.6875 3.6875 C-4.08455078 2.64142578 -4.08455078 2.64142578 -2.44921875 1.57421875 C-1.64097656 1.05472656 -0.83273438 0.53523437 0 0 Z " fill="#1B1B1B" transform="translate(243,242)"/>
<path d="M0 0 C0.66 0 1.32 0 2 0 C2 1.65 2 3.3 2 5 C4.31 5 6.62 5 9 5 C9 3.35 9 1.7 9 0 C9.66 0 10.32 0 11 0 C11 4.29 11 8.58 11 13 C10.34 13 9.68 13 9 13 C9 11.02 9 9.04 9 7 C6.69 7 4.38 7 2 7 C2 8.98 2 10.96 2 13 C1.34 13 0.68 13 0 13 C0 8.71 0 4.42 0 0 Z " fill="#383838" transform="translate(365,371)"/>
<path d="M0 0 C0.33 0.66 0.66 1.32 1 2 C-1.64 2 -4.28 2 -7 2 C-7 4.31 -7 6.62 -7 9 C-4.69 9.66 -2.38 10.32 0 11 C0 10.01 0 9.02 0 8 C-1.32 8 -2.64 8 -4 8 C-4 7.34 -4 6.68 -4 6 C-2.02 6 -0.04 6 2 6 C2.125 8.375 2.125 8.375 2 11 C0 13 0 13 -2.875 13.375 C-6 13 -6 13 -8.375 11.375 C-10.46379841 8.32214079 -10.54068562 6.63031776 -10 3 C-7.7109263 -1.03954182 -4.21983723 -0.23885871 0 0 Z " fill="#272727" transform="translate(147,371)"/>
<path d="M0 0 C1.9375 1.0625 1.9375 1.0625 3 3 C3.63316583 8.90954774 3.63316583 8.90954774 1.875 11.9375 C-0.93512264 13.52990283 -2.82764724 13.45319325 -6 13 C-8.375 11.375 -8.375 11.375 -10 9 C-10.45319325 5.82764724 -10.52990283 3.93512264 -8.9375 1.125 C-5.8930714 -0.64273274 -3.4368988 -0.36823916 0 0 Z M-8 3 C-8.33333333 6 -8.33333333 6 -8 9 C-6.10892859 11.33278733 -6.10892859 11.33278733 -2.9375 11.1875 C-0.11166864 11.33187793 -0.11166864 11.33187793 1 10 C1.25003964 6.54178598 1.25003964 6.54178598 1 3 C-0.82703227 0.7508092 -0.82703227 0.7508092 -3.5 0.75 C-6.17296773 0.7508092 -6.17296773 0.7508092 -8 3 Z " fill="#222222" transform="translate(314,371)"/>
<path d="M0 0 C1.9375 1.125 1.9375 1.125 3 3 C3.54068562 6.63031776 3.46379841 8.32214079 1.375 11.375 C-1.67785921 13.46379841 -3.36968224 13.54068562 -7 13 C-8.875 11.9375 -8.875 11.9375 -10 10 C-10.36528977 6.5906288 -10.6140629 4.11976176 -8.9375 1.0625 C-5.88023824 -0.6140629 -3.4093712 -0.36528977 0 0 Z M-8 3 C-8.25003964 6.54178598 -8.25003964 6.54178598 -8 10 C-6.88833136 11.33187793 -6.88833136 11.33187793 -4.0625 11.1875 C-0.89107141 11.33278733 -0.89107141 11.33278733 1 9 C1.33333333 6 1.33333333 6 1 3 C-0.82703227 0.7508092 -0.82703227 0.7508092 -3.5 0.75 C-6.17296773 0.7508092 -6.17296773 0.7508092 -8 3 Z " fill="#2D2D2D" transform="translate(237,371)"/>
<path d="M0 0 C2.97 0 5.94 0 9 0 C9 0.66 9 1.32 9 2 C6.69 2 4.38 2 2 2 C2 3.32 2 4.64 2 6 C4.31 6 6.62 6 9 6 C9 6.66 9 7.32 9 8 C6.69 8 4.38 8 2 8 C2 9.65 2 11.3 2 13 C4.31 13 6.62 13 9 13 C9 13.33 9 13.66 9 14 C6.03 14 3.06 14 0 14 C0 9.38 0 4.76 0 0 Z " fill="#393939" transform="translate(381,370)"/>
<path d="M0 0 C2.97 0 5.94 0 9 0 C9 0.66 9 1.32 9 2 C6.69 2 4.38 2 2 2 C2 3.32 2 4.64 2 6 C4.31 6 6.62 6 9 6 C9 6.66 9 7.32 9 8 C6.69 8 4.38 8 2 8 C2 9.65 2 11.3 2 13 C4.31 13 6.62 13 9 13 C9 13.33 9 13.66 9 14 C6.03 14 3.06 14 0 14 C0 9.38 0 4.76 0 0 Z " fill="#393939" transform="translate(338,370)"/>
<path d="M0 0 C3.34998521 1.11666174 3.79340222 1.74694925 5.6875 4.5625 C6.12449219 5.20316406 6.56148437 5.84382813 7.01171875 6.50390625 C7.33785156 6.99761719 7.66398438 7.49132812 8 8 C8.33 5.36 8.66 2.72 9 0 C9.66 0 10.32 0 11 0 C11 4.29 11 8.58 11 13 C6.11261969 10.55630984 4.97285462 8.45928193 2 4 C1.67 6.97 1.34 9.94 1 13 C0.67 13 0.34 13 0 13 C0 8.71 0 4.42 0 0 Z " fill="#1E1E1E" transform="translate(161,371)"/>
<path d="M0 0 C0 0.99 0 1.98 0 3 C-0.33 2.67 -0.66 2.34 -1 2 C-3.45809998 1.7499227 -3.45809998 1.7499227 -6 2 C-8.26839983 3.83265325 -8.26839983 3.83265325 -8.1875 6.5625 C-8.27003323 8.94689723 -8.27003323 8.94689723 -7 10 C-4.67182036 10.36760731 -2.3381615 10.70241581 0 11 C0 10.01 0 9.02 0 8 C-1.65 8 -3.3 8 -5 8 C-5 7.34 -5 6.68 -5 6 C-2.69 6 -0.38 6 2 6 C2.125 8.375 2.125 8.375 2 11 C0 13 0 13 -3.4375 13.3125 C-7 13 -7 13 -8.9375 11.9375 C-10.6140629 8.88023824 -10.36528977 6.4093712 -10 3 C-7.7672032 -1.07157064 -4.21152194 -0.23838803 0 0 Z " fill="#1A1A1A" transform="translate(332,371)"/>
<path d="M0 0 C0.99 0 1.98 0 3 0 C4.60546875 1.96875 4.60546875 1.96875 6.1875 4.5 C6.71730469 5.3353125 7.24710938 6.170625 7.79296875 7.03125 C8.19128906 7.6809375 8.58960938 8.330625 9 9 C9.33 6.03 9.66 3.06 10 0 C10.33 0 10.66 0 11 0 C11 4.29 11 8.58 11 13 C10.34 13 9.68 13 9 13 C7.4921875 11.03125 7.4921875 11.03125 5.875 8.5 C5.33617188 7.6646875 4.79734375 6.829375 4.2421875 5.96875 C3.83226563 5.3190625 3.42234375 4.669375 3 4 C2.67 6.97 2.34 9.94 2 13 C1.34 13 0.68 13 0 13 C0 8.71 0 4.42 0 0 Z " fill="#222222" transform="translate(121,371)"/>
<path d="M0 0 C2.97 0 5.94 0 9 0 C9 0.33 9 0.66 9 1 C6.69 1 4.38 1 2 1 C2 2.32 2 3.64 2 5 C4.31 5 6.62 5 9 5 C9 5.66 9 6.32 9 7 C6.69 7 4.38 7 2 7 C2 8.32 2 9.64 2 11 C4.31 11 6.62 11 9 11 C9 11.66 9 12.32 9 13 C6.03 13 3.06 13 0 13 C0 8.71 0 4.42 0 0 Z " fill="#323232" transform="translate(214,371)"/>
<path d="M0 0 C2.625 1.5625 2.625 1.5625 3.625 3.5625 C0.655 3.0675 0.655 3.0675 -2.375 2.5625 C-2.045 3.2225 -1.715 3.8825 -1.375 4.5625 C-7.315 3.5725 -7.315 3.5725 -13.375 2.5625 C-13.375 1.2425 -13.375 -0.0775 -13.375 -1.4375 C-8.52863661 -3.05295446 -4.62474002 -1.96979668 0 0 Z " fill="#FFD540" transform="translate(245.375,357.4375)"/>
<path d="M0 0 C-3.49752465 2.3316831 -5.85614158 2.58111858 -10 3.125 C-11.2375 3.29257812 -12.475 3.46015625 -13.75 3.6328125 C-17 4 -17 4 -20 4 C-20 3.34 -20 2.68 -20 2 C-21.32 1.67 -22.64 1.34 -24 1 C-15.97667603 0.09958689 -8.07029553 -0.11547323 0 0 Z " fill="#FFD232" transform="translate(171,357)"/>
<path d="M0 0 C0.66 0 1.32 0 2 0 C2 3.96 2 7.92 2 12 C3.65 12 5.3 12 7 12 C7 12.66 7 13.32 7 14 C4.69 14 2.38 14 0 14 C0 9.38 0 4.76 0 0 Z " fill="#575757" transform="translate(259,370)"/>
<path d="M0 0 C7.59 0 15.18 0 23 0 C23 0.33 23 0.66 23 1 C17.39 1 11.78 1 6 1 C6 1.66 6 2.32 6 3 C4.35 3 2.7 3 1 3 C0.67 2.01 0.34 1.02 0 0 Z " fill="#FFDD65" transform="translate(109,360)"/>
<path d="M0 0 C0.66 0.33 1.32 0.66 2 1 C-0.97 3.64 -3.94 6.28 -7 9 C-7.33 8.34 -7.66 7.68 -8 7 C-7.67 6.34 -7.34 5.68 -7 5 C-8.65 5 -10.3 5 -12 5 C-12 4.67 -12 4.34 -12 4 C-11.38511719 3.87882813 -10.77023437 3.75765625 -10.13671875 3.6328125 C-9.32847656 3.46523437 -8.52023437 3.29765625 -7.6875 3.125 C-6.88699219 2.96257812 -6.08648437 2.80015625 -5.26171875 2.6328125 C-2.74698882 2.05521001 -2.74698882 2.05521001 0 0 Z " fill="#D7BC5C" transform="translate(301,139)"/>
<path d="M0 0 C2.31 0 4.62 0 7 0 C7 1.65 7 3.3 7 5 C5.25 6.125 5.25 6.125 3 7 C0.75 6.125 0.75 6.125 -1 5 C0.98 5 2.96 5 5 5 C5 4.01 5 3.02 5 2 C3.35 2 1.7 2 0 2 C0 1.34 0 0.68 0 0 Z " fill="#4D4D4D" transform="translate(327,377)"/>
<path d="M0 0 C1.65 0 3.3 0 5 0 C5.33 1.65 5.66 3.3 6 5 C4.02 5 2.04 5 0 5 C0 3.35 0 1.7 0 0 Z " fill="#EAEAEA" transform="translate(246,372)"/>
<path d="M0 0 C1.65 0 3.3 0 5 0 C5.5625 1.9375 5.5625 1.9375 6 4 C5 5 5 5 2.4375 5.0625 C1.2309375 5.0315625 1.2309375 5.0315625 0 5 C0 3.35 0 1.7 0 0 Z " fill="#F5F5F5" transform="translate(202,372)"/>
<path d="M0 0 C1.65 0 3.3 0 5 0 C5.5625 1.9375 5.5625 1.9375 6 4 C5 5 5 5 2.4375 5.0625 C1.2309375 5.0315625 1.2309375 5.0315625 0 5 C0 3.35 0 1.7 0 0 Z " fill="#F5F5F5" transform="translate(102,372)"/>
<path d="M0 0 C0.66 0 1.32 0 2 0 C2 4.29 2 8.58 2 13 C1.01 12.67 0.02 12.34 -1 12 C-0.67 8.04 -0.34 4.08 0 0 Z " fill="#2F2F2F" transform="translate(170,371)"/>
<path d="M0 0 C1.98 0 3.96 0 6 0 C6.33 1.32 6.66 2.64 7 4 C4.69 4 2.38 4 0 4 C0 2.68 0 1.36 0 0 Z " fill="#D9D9D9" transform="translate(87,372)"/>
<path d="M0 0 C0.66 1.32 1.32 2.64 2 4 C-3.94 3.01 -3.94 3.01 -10 2 C-10 1.34 -10 0.68 -10 0 C-6.41871818 -1.23967448 -3.63396678 -1.02699061 0 0 Z " fill="#FFE68F" transform="translate(242,358)"/>
<path d="M0 0 C1.98 0 3.96 0 6 0 C6 1.98 6 3.96 6 6 C3 7 3 7 0.8125 6.0625 C0.214375 5.711875 -0.38375 5.36125 -1 5 C0.65 5 2.3 5 4 5 C4 4.01 4 3.02 4 2 C2.68 2 1.36 2 0 2 C0 1.34 0 0.68 0 0 Z " fill="#4E4E4E" transform="translate(182,377)"/>
<path d="M0 0 C1.98 0 3.96 0 6 0 C6.1875 2.375 6.1875 2.375 6 5 C5.01 5.66 4.02 6.32 3 7 C1.68 6.34 0.36 5.68 -1 5 C0.65 5 2.3 5 4 5 C4 4.01 4 3.02 4 2 C2.68 2 1.36 2 0 2 C0 1.34 0 0.68 0 0 Z " fill="#444444" transform="translate(143,377)"/>
<path d="M0 0 C2.475 0.495 2.475 0.495 5 1 C5 2.32 5 3.64 5 5 C3.35 5 1.7 5 0 5 C0 3.35 0 1.7 0 0 Z " fill="#F6F6F6" transform="translate(397,372)"/>
<path d="M0 0 C2 2 2 2 2.8125 4.5625 C3.204375 5.366875 3.59625 6.17125 4 7 C6.54775306 7.89386164 6.54775306 7.89386164 9 8 C7.25 9.125 7.25 9.125 5 10 C2.30066074 9.07451225 1.28813232 8.57626463 0 6 C-0.039992 4.00039988 -0.04346799 1.99952758 0 0 Z " fill="#474747" transform="translate(304,374)"/>
<path d="M0 0 C1.65 0 3.3 0 5 0 C5.33 1.32 5.66 2.64 6 4 C4.02 4 2.04 4 0 4 C0 2.68 0 1.36 0 0 Z " fill="#F8F8F8" transform="translate(88,378)"/>
<path d="M0 0 C0.66 0.33 1.32 0.66 2 1 C1.67 1.99 1.34 2.98 1 4 C-0.84765625 4.73046875 -0.84765625 4.73046875 -3.0625 5.1875 C-3.79597656 5.34605469 -4.52945313 5.50460938 -5.28515625 5.66796875 C-6.13400391 5.83232422 -6.13400391 5.83232422 -7 6 C-6 3 -6 3 -3.0625 1.25 C-2.051875 0.8375 -1.04125 0.425 0 0 Z " fill="#171717" transform="translate(189,177)"/>
</svg>
